<?xml version="1.0" encoding="UTF-8"?>
<svg width="739px" height="563px" viewBox="0 0 739 563" version="1.1" xmlns="http://www.w3.org/2000/svg" xmlns:xlink="http://www.w3.org/1999/xlink">
    <!-- Generator: Sketch 62 (91390) - https://sketch.com -->
    <title>undraw_ideation_2a64</title>
    <desc>Created with Sketch.</desc>
    <g id="Landing-Page" stroke="none" stroke-width="1" fill="none" fill-rule="evenodd">
        <g id="Desktop-HD-Copy-2" transform="translate(-610.000000, -183.000000)" fill-rule="nonzero">
            <g id="undraw_ideation_2a64" transform="translate(610.000000, 183.895508)">
                <polygon id="Path" fill="#F2F2F2" points="540.701711 271.182176 529.792178 320.250685 520.936213 360.057873 513.877548 391.806064 505.027078 431.613252 476.106064 561.66335 117.733504 396.065721 91.390956 383.891345 58.0467677 368.481002 31.6952885 356.306626 0 341.6589 17.968198 315.516968 32.910665 293.778973 51.8132396 266.276699 66.7502103 244.552445 234.843174 0 412.911293 157.882152 444.62101 185.995892 469.905513 208.414059 501.619352 236.5278"></polygon>
                <polygon id="Path" fill="#6C63FF" points="406.461347 332.982939 424.973682 365.046482 443.48533 397.110024 406.461347 397.110024 369.438051 397.110024 387.949699 365.046482"></polygon>
                <rect id="Rectangle" fill="#6C63FF" x="223.632029" y="270.007335" width="77.6356968" height="77.6356968"></rect>
                <circle id="Oval" fill="#6C63FF" cx="356.918093" cy="170.729829" r="49.8105134"></circle>
                <path d="M401.747741,253.900195 C401.747741,249.346884 405.438928,245.655696 409.992239,245.655696 C414.54555,245.655696 418.236738,249.346884 418.236738,253.900195 C418.236738,258.453506 414.54555,262.144694 409.992239,262.144694 C405.441036,262.139609 401.752826,258.451398 401.747741,253.900195 Z M403.121824,253.900195 C403.121824,257.694621 406.197814,260.770611 409.992239,260.770611 C413.786665,260.770611 416.862655,257.694621 416.862655,253.900195 C416.862655,250.105769 413.786665,247.029779 409.992239,247.029779 C406.199611,247.034115 403.126159,250.107566 403.121824,253.900195 Z" id="Shape" fill="#3F3D56"></path>
                <path d="M330.766254,397.31141 L318.630428,384.300334 L331.641504,372.164514 L343.777331,385.17559 L330.766254,397.31141 Z M320.564807,384.367664 L330.833584,395.377031 L341.842951,385.10826 L331.574174,374.098893 L320.564807,384.367664 Z" id="Shape" fill="#3F3D56"></path>
                <path d="M230.539635,212.218208 L220.662519,201.62874 L231.252007,191.751611 L241.129123,202.341078 L230.539635,212.218208 Z M222.236868,201.683525 L230.594433,210.643845 L239.554753,202.286287 L231.197188,193.325939 L222.236868,201.683525 Z" id="Shape" fill="#3F3D56"></path>
                <rect id="Rectangle" fill="#3F3D56" x="309.512225" y="560.625917" width="428.713936" height="1.37408313"></rect>
                <path d="M369.284841,226.723716 C331.340583,226.723716 300.580685,195.963818 300.580685,158.01956 C300.580685,120.075302 331.340583,89.3154034 369.284841,89.3154034 C407.229099,89.3154034 437.988998,120.075302 437.988998,158.01956 C437.946092,195.946032 407.211313,226.680811 369.284841,226.723716 L369.284841,226.723716 Z M369.284841,90.6894866 C332.099468,90.6894866 301.954768,120.834187 301.954768,158.01956 C301.954768,195.204933 332.099468,225.349633 369.284841,225.349633 C406.470214,225.349633 436.614914,195.204933 436.614914,158.01956 C436.572997,120.851564 406.452837,90.731404 369.284841,90.6894866 Z" id="Shape" fill="#3F3D56"></path>
                <polygon id="Rectangle" fill="#3F3D56" transform="translate(318.734116, 230.240614) rotate(-64.335790) translate(-318.734116, -230.240614) " points="298.24419 229.553559 339.224042 229.553559 339.224042 230.927669 298.24419 230.927669"></polygon>
                <polygon id="Rectangle" fill="#3F3D56" transform="translate(361.654594, 319.330434) rotate(-61.578070) translate(-361.654594, -319.330434) " points="360.96749 274.884692 362.341697 274.884692 362.341697 363.776177 360.96749 363.776177"></polygon>
                <path d="M323.253056,348.330073 L222.944988,348.330073 L222.944988,248.022005 L323.253056,248.022005 L323.253056,348.330073 Z M224.319071,346.95599 L321.878973,346.95599 L321.878973,249.396088 L224.319071,249.396088 L224.319071,346.95599 Z" id="Shape" fill="#3F3D56"></path>
                <path d="M472.004267,397.797066 L368.24824,397.797066 L420.125917,307.941895 L472.004267,397.797066 Z M370.628062,396.422983 L469.623771,396.422983 L420.125917,310.689725 L370.628062,396.422983 Z" id="Shape" fill="#3F3D56"></path>
                <circle id="Oval" fill="#A0616A" cx="602.878973" cy="231.533007" r="17.1760391"></circle>
                <path d="M611.810513,240.464548 C611.810513,240.464548 613.871638,261.075795 617.306846,264.511002 C620.742054,267.94621 593.260391,262.449878 593.260391,262.449878 C593.260391,262.449878 597.382641,245.273839 594.634474,242.525672 C591.886308,239.777506 611.810513,240.464548 611.810513,240.464548 Z" id="Path" fill="#A0616A"></path>
                <path d="M623.833741,275.160147 C623.833741,275.160147 632.07824,298.51956 634.139364,312.947433 C636.200489,327.375306 636.200489,333.55868 636.200489,333.55868 C636.200489,333.55868 645.132029,361.040342 642.383863,374.094132 C642.383863,374.094132 652.689487,405.011002 643.757946,405.011002 C634.826406,405.011002 632.07824,379.590465 632.07824,379.590465 L618.337408,314.321516 L623.833741,275.160147 Z" id="Path" fill="#A0616A"></path>
                <path d="M627.95599,286.152812 C627.95599,286.152812 625.894866,260.732274 616.963325,258.671149 C612.69938,257.687161 605.773479,256.233416 599.699063,254.982705 C589.117208,252.80391 578.20222,257.824391 573.392008,267.4983 C572.490162,269.252214 571.89061,271.145681 571.618582,273.099022 C570.244499,284.091687 563.374083,284.091687 569.557457,298.51956 C575.740831,312.947433 574.366748,328.062347 574.366748,328.062347 L578.488998,364.47555 C578.488998,364.47555 561.312958,412.56846 562.687042,444.859413 L546.885086,523.869193 C546.885086,523.869193 550.320293,532.113692 559.938875,527.991443 C559.938875,527.991443 583.98533,487.45599 581.924205,457.913203 L606.657702,402.949878 C606.657702,402.949878 623.833741,455.165037 628.643032,459.974328 L641.00978,534.174817 C641.00978,534.174817 652.689487,537.610024 658.185819,534.174817 C658.185819,534.174817 660.246944,462.722494 648.567237,451.042787 C648.567237,451.042787 636.887531,401.575795 639.635697,388.522005 C642.383863,375.468215 643.070905,355.54401 622.459658,337.680929 C622.459658,337.680929 625.207824,330.123472 616.276284,326.001222 L623.146699,304.015892 L627.95599,286.152812 Z" id="Path" fill="#2F2E41"></path>
                <path d="M584.864743,256.873848 C584.679242,256.847054 584.489877,256.824865 584.296649,256.807281 C578.213315,256.258094 572.97564,261.115341 572.704437,267.217383 L571.618582,291.649144 L567.496333,318.443765 L558.564792,376.155257 C558.564792,376.155257 541.388753,396.766504 553.06846,398.140587 C564.748166,399.51467 566.809291,375.468215 566.809291,375.468215 L581.924205,330.123472 L588.107579,288.213936 C588.107579,288.213936 595.319771,281.001745 592.318093,264.328847 C591.69069,260.501973 588.691478,257.502098 584.864743,256.873848 L584.864743,256.873848 Z" id="Path" fill="#A0616A"></path>
                <path d="M545.511002,521.121027 L540.701711,545.854523 C540.701711,545.854523 529.022005,551.350856 536.579462,558.221271 C544.136919,565.091687 554.442543,556.847188 554.442543,556.847188 L557.190709,548.602689 L556.503667,560.969438 L558.564792,560.969438 L560.625917,548.602689 C560.625917,548.602689 564.748166,541.045232 562,534.861858 L562,526.617359 L545.511002,521.121027 Z" id="Path" fill="#2F2E41"></path>
                <path d="M639.292176,523.525672 L636.54401,546.198044 C636.54401,546.198044 624.864303,551.694377 632.42176,558.564792 C639.979218,565.435208 650.284841,557.190709 650.284841,557.190709 L653.033007,548.94621 L652.345966,561.312958 L654.40709,561.312958 L656.468215,548.94621 C656.468215,548.94621 660.590465,541.388753 657.842298,535.205379 L657.842298,526.96088 L639.292176,523.525672 Z" id="Path" fill="#2F2E41"></path>
                <path d="M611.838923,204.984773 L611.838778,204.984773 C610.87543,204.986652 609.914547,205.082199 608.969693,205.270067 C607.262611,204.441361 605.390099,204.009784 603.492501,204.007683 L602.995282,204.007683 C593.410441,204.007683 585.640551,212.680896 585.640551,223.379761 L585.640551,223.379796 L588.852106,223.379796 L589.370822,219.43189 L590.131192,223.379796 L592.806724,223.379796 C591.974448,226.547569 591.556725,229.809946 591.564017,233.08522 L591.564017,252.802832 L596.419717,252.802832 L599.230975,245.497271 L598.528131,252.802832 L629.739124,252.802832 L632.294823,246.161428 L631.655874,252.802832 L635.169927,252.802832 L635.169927,237.320962 C635.169927,219.462209 624.724215,204.984773 611.838923,204.984773 Z" id="Path" fill="#2F2E41"></path>
                <rect id="Rectangle" fill="#3F3D56" x="707.218134" y="330.838222" width="1.28799682" height="230.326782"></rect>
                <ellipse id="Oval" fill="#3F3D56" cx="708.110553" cy="484.110173" rx="25.115993" ry="57.3159822"></ellipse>
                <ellipse id="Oval" fill="#3F3D56" cx="708.110553" cy="353.378214" rx="25.115993" ry="57.3159822"></ellipse>
                <path d="M708.72751,306.551124 L707.493583,306.181331 C707.571569,305.920942 715.143598,279.972612 702.7104,263.26824 C695.688038,253.834019 683.637885,249.050245 666.894517,249.050245 L666.894517,247.762248 C684.069945,247.762248 696.468826,252.722111 703.747152,262.504099 C716.565252,279.732058 708.807378,306.285101 708.72751,306.551124 Z" id="Path" fill="#3F3D56"></path>
                <circle id="Oval" fill="#F2F2F2" cx="666.894566" cy="248.406247" r="16.0999946"></circle>
            </g>
        </g>
    </g>
</svg>