<?xml version="1.0" encoding="UTF-8"?>
<svg width="130px" height="24px" viewBox="0 0 130 24" version="1.1" xmlns="http://www.w3.org/2000/svg" xmlns:xlink="http://www.w3.org/1999/xlink">
    <!-- Generator: Sketch 62 (91390) - https://sketch.com -->
    <title>WebBites</title>
    <desc>Created with Sketch.</desc>
    <g id="Landing-Page" stroke="none" stroke-width="1" fill="none" fill-rule="evenodd">
        <g id="Desktop-HD-Copy-2" transform="translate(-63.000000, -50.000000)" fill="#2128BD" fill-rule="nonzero">
            <path d="M73.478,73 L74.966,65.002 C75.276,63.452 75.493,61.778 75.71,60.29 L75.834,60.29 C76.02,61.778 76.268,63.452 76.578,65.002 L78.128,73 L84.886,73 L88.234,52.85 L83.15,52.85 L82.034,61.654 C81.817,63.7 81.569,65.839 81.352,67.978 L81.228,67.978 L80.856,65.8355556 C80.608,64.4095556 80.36,62.9973333 80.112,61.654 L78.19,52.85 L73.726,52.85 L71.804,61.654 C71.432,63.731 71.06,65.87 70.688,67.978 L70.564,67.978 C70.347,65.87 70.099,63.762 69.882,61.654 L68.766,52.85 L63.31,52.85 L66.844,73 L73.478,73 Z M97.534,73.372 C99.27,73.372 101.502,72.752 103.176,71.574 L101.44,68.412 C100.324,69.032 99.332,69.342 98.278,69.342 C96.542,69.342 95.178,68.722 94.682,66.738 L103.517,66.738 C103.61,66.366 103.734,65.56 103.734,64.63 C103.734,60.476 101.564,57.128 96.976,57.128 C93.194,57.128 89.536,60.228 89.536,65.25 C89.536,70.396 93.008,73.372 97.534,73.372 Z M99.208,63.514 L94.62,63.514 C94.93,61.809 95.922,61.158 97.1,61.158 C98.712,61.158 99.208,62.212 99.208,63.514 Z M115.266,73.372 C118.552,73.372 121.714,70.334 121.714,64.971 C121.714,60.228 119.327,57.128 115.669,57.128 C114.305,57.128 112.941,57.686 111.856,58.678 L111.98,56.446 L111.98,51.424 L106.648,51.424 L106.648,73 L110.802,73 L111.236,71.326 L111.36,71.326 C112.538,72.69 113.902,73.372 115.266,73.372 Z M113.964,69.032 C113.282,69.032 112.6,68.846 111.98,68.288 L111.98,62.584 C112.662,61.778 113.282,61.468 114.088,61.468 C115.514,61.468 116.258,62.522 116.258,65.064 C116.258,68.04 115.204,69.032 113.964,69.032 Z M132.936,73 C137.276,73 140.872,71.202 140.872,67.048 C140.872,64.382 139.446,62.894 136.594,62.336 L136.594,62.212 C138.95,61.592 139.942,59.608 139.942,57.872 C139.942,53.904 136.532,52.85 132.316,52.85 L125.062,52.85 L125.062,73 L132.936,73 Z M132.192,60.786 L130.394,60.786 L130.394,56.942 L132.192,56.942 C133.928,56.942 134.734,57.438 134.734,58.678 C134.734,59.918 133.928,60.786 132.192,60.786 Z M132.564,68.908 L130.394,68.908 L130.394,64.506 L132.564,64.506 C134.672,64.506 135.664,65.126 135.664,66.614 C135.664,68.102 134.672,68.908 132.564,68.908 Z M146.266,55.578 C148.002,55.578 149.242,54.462 149.242,52.912 C149.242,51.362 148.002,50.246 146.266,50.246 C144.53,50.246 143.29,51.362 143.29,52.912 C143.29,54.462 144.53,55.578 146.266,55.578 Z M148.932,73 L148.932,57.5 L143.6,57.5 L143.6,73 L148.932,73 Z M158.914,73.372 C160.619,73.372 161.766,73.062 162.572,72.814 L161.766,68.97 C161.394,69.094 160.898,69.218 160.402,69.218 C159.41,69.218 158.542,68.66 158.542,66.955 L158.542,61.654 L162.076,61.654 L162.076,57.5 L158.542,57.5 L158.542,53.47 L154.14,53.47 L153.52,57.5 L151.164,57.686 L151.164,61.654 L153.21,61.654 L153.21,67.048 C153.21,70.83 154.884,73.372 158.914,73.372 Z M171.81,73.372 C173.546,73.372 175.778,72.752 177.452,71.574 L175.716,68.412 C174.6,69.032 173.608,69.342 172.554,69.342 C170.818,69.342 169.454,68.722 168.958,66.738 L177.793,66.738 C177.886,66.366 178.01,65.56 178.01,64.63 C178.01,60.476 175.84,57.128 171.252,57.128 C167.47,57.128 163.812,60.228 163.812,65.25 C163.812,70.396 167.284,73.372 171.81,73.372 Z M173.484,63.514 L168.896,63.514 C169.206,61.809 170.198,61.158 171.376,61.158 C172.988,61.158 173.484,62.212 173.484,63.514 Z M185.698,73.372 C190.038,73.372 192.332,71.14 192.332,68.226 C192.332,65.436 190.224,64.258 188.364,63.576 C186.814,63.018 185.45,62.708 185.45,61.902 C185.45,61.282 185.915,61.034 186.814,61.034 C187.775,61.034 188.86,61.53 189.976,62.336 L192.332,59.174 C190.968,58.151 189.17,57.128 186.628,57.128 C182.97,57.128 180.49,59.112 180.49,62.15 C180.49,64.692 182.598,66.025 184.396,66.738 C185.946,67.358 187.372,67.73 187.372,68.536 C187.372,69.156 186.938,69.466 185.822,69.466 C184.737,69.466 183.466,68.97 182.04,67.916 L179.684,71.202 C181.296,72.504 183.714,73.372 185.698,73.372 Z" id="WebBites"></path>
        </g>
    </g>
</svg>