<?xml version="1.0" encoding="UTF-8"?>
<svg width="555px" height="410px" viewBox="0 0 555 410" version="1.1" xmlns="http://www.w3.org/2000/svg" xmlns:xlink="http://www.w3.org/1999/xlink">
    <!-- Generator: Sketch 62 (91390) - https://sketch.com -->
    <title>undraw_innovative_b409</title>
    <desc>Created with Sketch.</desc>
    <g id="Landing-Page" stroke="none" stroke-width="1" fill="none" fill-rule="evenodd">
        <g id="Desktop-HD-Copy-2" transform="translate(-759.000000, -1766.000000)" fill-rule="nonzero">
            <g id="Group-4" transform="translate(134.000000, 1766.000000)">
                <g id="undraw_innovative_b409" transform="translate(625.000000, 0.000000)">
                    <circle id="Oval" fill="#6C63FF" cx="233.120352" cy="160.392674" r="76.3366391"></circle>
                    <path d="M243.102818,223.811052 C200.686722,223.811052 166.178974,189.303009 166.178974,146.88692 C166.178974,104.47083 200.686722,69.9630758 243.102818,69.9630758 C285.518625,69.9630758 320.026662,104.470825 320.026662,146.88692 C320.026662,189.303015 285.518625,223.811052 243.102818,223.811052 Z M243.102818,71.137468 C212.464945,71.137468 184.843845,89.5931974 173.119211,117.898889 C161.394578,146.204581 167.875381,178.785862 189.539628,200.450109 C211.203876,222.114356 243.785157,228.59516 272.090848,216.870526 C300.39654,205.145892 318.852252,177.524792 318.852252,146.88692 C318.80499,105.071252 284.918485,71.18474 243.102818,71.137468 L243.102818,71.137468 Z" id="Shape" fill="#9990FF"></path>
                    <path d="M476.223204,258.957656 L1.76161475e-05,258.957656 L1.76161475e-05,0 L476.223204,0 L476.223204,258.957656 Z M1.17442745,257.783246 L475.048795,257.783246 L475.048795,1.17440983 L1.17442745,1.17440983 L1.17442745,257.783246 Z" id="Shape" fill="#7B80FF"></path>
                    <rect id="Rectangle" fill="#F2F2F2" x="15.854568" y="20.5522249" width="104.522475" height="10.5696885"></rect>
                    <rect id="Rectangle" fill="#F2F2F2" x="172.638281" y="20.5522249" width="104.522475" height="10.5696885"></rect>
                    <rect id="Rectangle" fill="#F2F2F2" x="329.421993" y="20.5522249" width="104.522475" height="10.5696885"></rect>
                    <path d="M127.423484,26.4242212 L21.7265995,26.4242212 L21.7265995,14.6801229 L127.423484,14.6801229 L127.423484,26.4242212 Z M22.9010093,25.2498114 L126.249075,25.2498114 L126.249075,15.8545327 L22.9010093,15.8545327 L22.9010093,25.2498114 Z" id="Shape" fill="#3F3D56"></path>
                    <path d="M284.207197,26.4242212 L178.510312,26.4242212 L178.510312,14.6801229 L284.207197,14.6801229 L284.207197,26.4242212 Z M179.684722,25.2498114 L283.032787,25.2498114 L283.032787,15.8545327 L179.684722,15.8545327 L179.684722,25.2498114 Z" id="Shape" fill="#3F3D56"></path>
                    <path d="M440.99091,26.4242212 L335.294025,26.4242212 L335.294025,14.6801229 L440.99091,14.6801229 L440.99091,26.4242212 Z M336.468434,25.2498114 L439.8165,25.2498114 L439.8165,15.8545327 L336.468434,15.8545327 L336.468434,25.2498114 Z" id="Shape" fill="#3F3D56"></path>
                    <rect id="Rectangle" fill="#7B80FF" x="68.3939116" y="400.906857" width="485.973372" height="1.49991513"></rect>
                    <polygon id="Path" fill="#3F3D56" points="231.065134 283.913577 268.059044 212.274577 278.041528 218.146626 235.762774 286.849601"></polygon>
                    <path d="M209.632173,299.47456 C209.632173,299.47456 216.450567,304.831871 217.224591,293.369308 C217.424175,289.688628 219.159676,286.260768 222.008109,283.921181 C225.095445,281.454457 229.538478,279.767352 234.88199,283.032828 C239.63835,285.939493 240.708531,290.154156 240.446931,293.911017 C239.972791,299.373946 236.849791,304.257053 232.089449,306.978733 C226.788627,310.125212 218.420869,312.493457 209.632179,304.75941 C209.632173,304.759404 204.347328,298.887355 209.632173,299.47456 Z" id="Path" fill="#6C63FF"></path>
                    <circle id="Oval" fill="#FFB8B8" cx="275.044956" cy="115.547494" r="14.2492202"></circle>
                    <path d="M267.545363,122.297109 C267.545363,122.297109 271.29516,141.796041 269.795245,145.545832 C268.29533,149.295623 290.794092,144.045917 290.794092,144.045917 C290.794092,144.045917 286.294341,124.546985 287.044295,120.047234 C287.79425,115.547482 267.545363,122.297109 267.545363,122.297109 Z" id="Path" fill="#FFB8B8"></path>
                    <polygon id="Path" fill="#FFB8B8" points="242.796901 189.793437 244.296623 210.042024 251.74062 241.842693 254.045986 250.540373 257.795877 237.041119 254.045986 206.292721 252.772339 192.449365"></polygon>
                    <path d="M321.542408,186.793589 L321.542408,207.792442 C321.542408,207.792442 319.292532,234.79095 314.792775,241.540588 C310.293018,248.290227 308.793103,214.542081 308.793103,214.542081 L312.319104,189.793437 L321.542408,186.793589 Z" id="Path" fill="#FFB8B8"></path>
                    <path d="M254.796064,252.040035 C254.796064,252.040035 251.046267,256.539787 254.046103,302.287277 C257.04594,348.034768 252.546188,381.032948 262.295646,381.032948 C262.295646,381.032948 259.295809,390.782411 267.545357,391.532372 C275.794905,392.28233 279.544702,393.032287 280.294662,390.782411 C281.044623,388.532536 282.544538,378.033112 280.294662,378.033112 C280.294662,378.033112 280.294662,381.032948 281.794577,369.033609 C283.294493,357.034271 283.294498,300.03739 287.044289,292.537803 L299.043634,320.286283 C299.043634,320.286283 299.043634,333.035582 301.293509,339.035254 C303.543385,345.034926 307.293182,379.533015 307.293182,379.533015 L306.543221,384.782727 C306.543221,384.782727 324.542226,387.782563 325.292193,384.782727 C326.042159,381.782891 326.042153,377.28314 325.292193,375.783225 C324.542232,374.28331 324.542238,374.283304 326.042153,371.283473 C327.542068,368.283643 327.542074,366.033762 326.792114,363.783886 C326.042153,361.53401 326.042153,312.786683 326.042153,312.786683 C326.042153,312.786683 324.542244,253.539933 315.542736,250.540097 C306.543227,247.540261 254.796064,252.040035 254.796064,252.040035 Z" id="Path" fill="#2F2E41"></path>
                    <path d="M264.545527,385.532699 L258.545861,396.032123 C258.545861,396.032123 249.171375,392.65731 251.046267,401.281835 C267.170386,402.406778 278.41977,400.906857 278.41977,400.906857 C278.41977,400.906857 282.169567,402.406778 282.919521,400.156897 C283.669476,397.907015 281.044623,390.032457 278.794747,390.032457 C276.544872,390.032457 264.545527,385.532699 264.545527,385.532699 Z" id="Path" fill="#2F2E41"></path>
                    <path d="M308.043148,382.532863 C308.043148,382.532863 302.043476,396.032117 304.293351,396.782083 C306.543227,397.53205 326.792108,400.53188 328.292035,401.281835 C329.791962,402.031789 337.291537,402.781756 338.041504,398.282004 C338.79147,393.782253 334.291707,392.282332 334.291707,392.282332 C334.291707,392.282332 326.042159,390.782411 323.792283,383.28283 C321.542408,375.783248 308.043148,382.532863 308.043148,382.532863 Z" id="Path" fill="#2F2E41"></path>
                    <path d="M292.294007,141.796059 C292.294007,141.796059 272.04512,138.046262 267.545363,141.796059 C263.045606,145.545855 244.29664,153.045443 244.29664,156.795234 C244.29664,160.545024 254.046103,197.292995 254.046103,197.292995 C254.046103,197.292995 248.796392,252.789949 254.046103,254.28987 C259.295815,255.789791 268.295324,251.290034 278.794747,256.539745 C289.294171,261.789457 319.292509,252.039994 319.292509,252.039994 C319.292509,252.039994 308.043125,204.042622 311.042961,195.043113 C314.042797,186.043605 316.292673,155.295295 316.292673,155.295295 C316.292673,155.295295 303.543391,141.796059 292.294007,141.796059 Z" id="Path" fill="#8985A8"></path>
                    <path d="M249.546352,154.545358 L244.29664,156.045273 C244.29664,156.045273 233.047256,191.293346 237.547008,192.793261 C242.046759,194.293176 254.796064,197.293013 256.295979,197.293013 C257.795894,197.293013 249.546352,154.545358 249.546352,154.545358 Z" id="Path" fill="#8985A8"></path>
                    <path d="M304.293351,150.795561 L316.292696,155.295313 C316.292696,155.295313 332.041831,184.543708 328.292035,188.293504 C324.542238,192.043301 308.043148,195.793092 308.043148,195.793092 L304.293351,150.795561 Z" id="Path" fill="#8985A8"></path>
                    <path d="M274.612145,97.947659 C273.427174,97.7329702 272.209141,97.7867466 271.0477,98.10503 C270.118113,98.5166557 269.262361,99.0780146 268.514545,99.7667377 C267.15758,100.848135 265.708306,101.808327 264.18341,102.636255 C262.968154,103.295974 261.661846,103.906585 260.81344,104.998522 C260.412369,105.550347 260.092096,106.156581 259.862304,106.798892 C258.400731,110.531416 258.007942,114.597326 258.727988,118.540607 C258.808917,119.10091 258.977498,119.644992 259.227547,120.152895 C260.007003,121.588993 261.72857,122.154947 263.178808,122.907767 C265.932211,124.337059 268.01939,126.743795 270.277704,128.870792 C271.116505,129.708123 272.059115,130.434553 273.082518,131.032346 C276.304323,132.788946 280.242307,132.215893 283.858943,131.594741 C284.376577,131.593743 284.872394,131.38614 285.236313,131.018025 C285.600232,130.64991 285.802137,130.151746 285.797201,129.634135 L288.65191,116.794465 C289.169371,114.892111 289.415687,112.926232 289.383567,110.955017 C289.184393,107.838186 287.497001,103.520651 285.209544,101.306653 C282.544233,98.7269915 278.096085,98.3164942 274.612145,97.947659 Z" id="Path" fill="#2F2E41"></path>
                    <ellipse id="Oval" fill="#6C63FF" cx="216.091444" cy="399.886601" rx="20.5521721" ry="1.17440983"></ellipse>
                    <ellipse id="Oval" fill="#6C63FF" cx="211.393805" cy="402.23542" rx="20.5521721" ry="1.17440983"></ellipse>
                    <ellipse id="Oval" fill="#6C63FF" cx="190.841633" cy="395.188961" rx="11.1568934" ry="1"></ellipse>
                    <ellipse id="Oval" fill="#6C63FF" cx="230.771567" cy="409.281879" rx="11.1568934" ry="1"></ellipse>
                </g>
            </g>
        </g>
    </g>
</svg>